<mxfile host="app.diagrams.net" modified="2023-08-17T02:15:16.470Z" agent="Mozilla/5.0 (Windows NT 10.0; Win64; x64) AppleWebKit/537.36 (KHTML, like Gecko) Chrome/115.0.0.0 Safari/537.36" version="21.6.8" etag="jASdFU0Ckn_vm0jO1i8U" type="github">
  <diagram name="第 1 页" id="qsL68NUadSZl1g5jc0zk">
    <mxGraphModel>
      <root>
        <mxCell id="0" />
        <mxCell id="1" parent="0" />
      </root>
    </mxGraphModel>
  </diagram>
</mxfile>
